<?xml version="1.0" encoding="UTF-8" standalone="no"?>
<!-- Created with Inkscape (http://www.inkscape.org/) -->

<svg
   xmlns:dc="http://purl.org/dc/elements/1.1/"
   xmlns:cc="http://creativecommons.org/ns#"
   xmlns:rdf="http://www.w3.org/1999/02/22-rdf-syntax-ns#"
   xmlns:svg="http://www.w3.org/2000/svg"
   xmlns="http://www.w3.org/2000/svg"
   xmlns:sodipodi="http://sodipodi.sourceforge.net/DTD/sodipodi-0.dtd"
   xmlns:inkscape="http://www.inkscape.org/namespaces/inkscape"
   width="744.09448819"
   height="1052.3622047"
   id="svg2"
   version="1.1"
   inkscape:version="0.48.1 r9760"
   sodipodi:docname="New document 1">
  <defs
     id="defs4" />
  <sodipodi:namedview
     id="base"
     pagecolor="#ffffff"
     bordercolor="#666666"
     borderopacity="1.0"
     inkscape:pageopacity="0.0"
     inkscape:pageshadow="2"
     inkscape:zoom="0.35"
     inkscape:cx="375"
     inkscape:cy="573.7613"
     inkscape:document-units="px"
     inkscape:current-layer="layer1"
     showgrid="false"
     inkscape:window-width="1016"
     inkscape:window-height="694"
     inkscape:window-x="0"
     inkscape:window-y="43"
     inkscape:window-maximized="1" />
  <metadata
     id="metadata7">
    <rdf:RDF>
      <cc:Work
         rdf:about="">
        <dc:format>image/svg+xml</dc:format>
        <dc:type
           rdf:resource="http://purl.org/dc/dcmitype/StillImage" />
        <dc:title></dc:title>
      </cc:Work>
    </rdf:RDF>
  </metadata>
  <g
     inkscape:label="Layer 1"
     inkscape:groupmode="layer"
     id="layer1">
    <path
       sodipodi:type="arc"
       style="fill:none;stroke:#000000"
       id="path2993"
       sodipodi:cx="274.28571"
       sodipodi:cy="272.36218"
       sodipodi:rx="131.42857"
       sodipodi:ry="125.71429"
       d="m 405.71428,272.36218 a 131.42857,125.71429 0 1 1 -262.85715,0 131.42857,125.71429 0 1 1 262.85715,0 z" />
    <path
       sodipodi:type="arc"
       style="fill:none;stroke:#000000"
       id="path2995"
       sodipodi:cx="452.85715"
       sodipodi:cy="273.79074"
       sodipodi:rx="144.28572"
       sodipodi:ry="132.85715"
       d="m 597.14287,273.79074 a 144.28572,132.85715 0 1 1 -288.57144,0 144.28572,132.85715 0 1 1 288.57144,0 z" />
    <rect
       style="fill:none;stroke:#000000"
       id="rect2997"
       width="554.28571"
       height="382.85715"
       x="91.428574"
       y="80.933609" />
    <text
       xml:space="preserve"
       style="font-size:40px;font-style:normal;font-weight:normal;line-height:125%;letter-spacing:0px;word-spacing:0px;fill:#000000;fill-opacity:1;stroke:none;font-family:Sans"
       x="197.14285"
       y="209.50504"
       id="text2999"
       sodipodi:linespacing="125%"><tspan
         sodipodi:role="line"
         id="tspan3001"
         x="197.14285"
         y="209.50504">dotco</tspan></text>
    <text
       xml:space="preserve"
       style="font-size:40px;font-style:normal;font-weight:normal;line-height:125%;letter-spacing:0px;word-spacing:0px;fill:#000000;fill-opacity:1;stroke:none;font-family:Sans"
       x="417.14285"
       y="226.6479"
       id="text3003"
       sodipodi:linespacing="125%"><tspan
         sodipodi:role="line"
         id="tspan3005"
         x="417.14285"
         y="226.6479">ricfu</tspan></text>
    <path
       style="fill:#ffff00;stroke:#000000;stroke-width:2.85714293"
       d="m 344.76184,357.55739 c -29.0142,-30.44276 -40.62816,-76.22894 -29.2091,-115.15222 8.81211,-30.03715 34.38865,-65.08109 44.63052,-61.15092 9.71061,3.72631 29.15595,32.76776 36.78224,54.93394 14.97794,43.53415 0.0685,95.75632 -36.28227,127.08348 -5.54804,4.7813 -6.11082,4.57932 -15.92139,-5.71428 l 0,0 z"
       id="path3007"
       inkscape:connector-curvature="0" />
    <path
       style="fill:#ffff00;stroke:#000000;stroke-width:2.85714293"
       d="m 93.857143,272.60088 0,-189.999998 274.285717,0 274.28571,0 0,189.999998 0,190 -274.28571,0 -274.285717,0 0,-190 z M 502.54977,399.99411 c 22.4764,-7.00757 42.39417,-19.69586 60.27123,-38.39475 16.06223,-16.80065 26.478,-36.71872 32.93166,-62.97524 16.16117,-65.75114 -31.82306,-136.29477 -104.9352,-154.26965 -42.76492,-10.5139 -94.069,-1.70608 -125.52438,21.54988 -7.27504,5.37868 -7.38768,5.36348 -23.02496,-3.10603 -90.57071,-49.05518 -199.836,10.59393 -200.12547,109.25067 -0.10725,36.5542 12.1523,65.04267 38.85978,90.30149 42.84333,40.51943 111.8345,48.5706 162.37922,18.94943 12.32728,-7.22426 12.58761,-7.25074 19.34262,-1.96814 12.12704,9.48371 37.2455,20.8406 55.13802,24.92974 22.67648,5.18246 60.48902,3.27709 84.68748,-4.2674 l 0,0 z"
       id="path3009"
       inkscape:connector-curvature="0" />
    <text
       xml:space="preserve"
       style="font-size:40px;font-style:normal;font-weight:normal;line-height:125%;letter-spacing:0px;word-spacing:0px;fill:#000000;fill-opacity:1;stroke:none;font-family:Sans"
       x="217.14288"
       y="498.07645"
       id="text3015"
       sodipodi:linespacing="125%"><tspan
         sodipodi:role="line"
         id="tspan3017"
         x="217.14288"
         y="498.07645">dotco jo ricfu</tspan></text>
    <rect
       style="fill:none;stroke:#000000"
       id="rect3021"
       width="542.85718"
       height="371.42856"
       x="100"
       y="606.64789" />
    <path
       sodipodi:type="arc"
       style="fill:none;stroke:#000000"
       id="path3023"
       sodipodi:cx="295.71429"
       sodipodi:cy="736.64789"
       sodipodi:rx="95.714287"
       sodipodi:ry="95.714287"
       d="m 391.42858,736.64789 a 95.714287,95.714287 0 1 1 -191.42857,0 95.714287,95.714287 0 1 1 191.42857,0 z" />
    <path
       sodipodi:type="arc"
       style="fill:none;stroke:#000000"
       id="path3025"
       sodipodi:cx="447.14285"
       sodipodi:cy="749.50507"
       sodipodi:rx="121.42857"
       sodipodi:ry="108.57143"
       d="m 568.57143,749.50507 a 121.42857,108.57143 0 1 1 -242.85715,0 121.42857,108.57143 0 1 1 242.85715,0 z" />
    <path
       sodipodi:type="arc"
       style="fill:none;stroke:#000000"
       id="path3027"
       sodipodi:cx="352.85715"
       sodipodi:cy="852.36218"
       sodipodi:rx="112.85714"
       sodipodi:ry="97.14286"
       d="m 465.71429,852.36218 a 112.85714,97.14286 0 1 1 -225.71428,0 112.85714,97.14286 0 1 1 225.71428,0 z" />
    <text
       xml:space="preserve"
       style="font-size:40px;font-style:normal;font-weight:normal;line-height:125%;letter-spacing:0px;word-spacing:0px;fill:#000000;fill-opacity:1;stroke:none;font-family:Sans"
       x="291.42856"
       y="912.36218"
       id="text3029"
       sodipodi:linespacing="125%"><tspan
         sodipodi:role="line"
         id="tspan3031"></tspan></text>
    <path
       style="fill:#ff6600;stroke:#000000;stroke-width:2.85714293"
       d="m 339.99528,793.31517 c -4.6781,-9.82143 -9.25496,-21.28047 -10.17079,-25.46454 -1.53813,-7.02714 -0.80586,-7.75258 9.60021,-9.51067 12.76232,-2.15618 42.3085,0.82431 44.57826,4.49686 3.70052,5.98757 -25.56535,48.33549 -33.40378,48.33549 -1.15404,0 -5.92579,-8.03571 -10.6039,-17.85714 z"
       id="path3037"
       inkscape:connector-curvature="0" />
    <path
       style="fill:#ff6600;stroke:#000000;stroke-width:2.85714293"
       d="m 331.12191,945.06227 c -52.3608,-8.68031 -91.46675,-52.54215 -87.90153,-98.59171 0.74769,-9.65739 2.14705,-18.83328 3.10969,-20.39087 1.10524,-1.7883 6.2368,-1.1593 13.92438,1.70679 19.39535,7.23098 57.2922,6.24736 75.60281,-1.96229 l 14.85726,-6.66132 13.71417,11.39869 c 7.54279,6.26927 17.82899,13.47145 22.85822,16.00483 13.16377,6.63101 42.71949,13.08607 60.14166,13.13512 17.00253,0.0479 17.33951,0.72964 10.41115,21.06327 -6.47875,19.01406 -28.9527,42.58967 -50.63488,53.11696 -14.85581,7.21289 -47.49767,15.18617 -57.63341,14.07784 -1.57143,-0.17184 -9.87371,-1.47563 -18.44952,-2.89731 z"
       id="path3039"
       inkscape:connector-curvature="0" />
    <path
       style="fill:#ff6600;stroke:#000000;stroke-width:2.85714293"
       d="m 466.83108,844.74374 c -4.33125,-22.77641 -8.26711,-33.04982 -17.57159,-45.86543 -9.61173,-13.23881 -38.74234,-34.85555 -51.1768,-37.9764 -5.45923,-1.37018 -6.04793,-3.59277 -6.21883,-23.47867 -0.20869,-24.28236 -5.44627,-41.91025 -16.92306,-56.9571 -7.10401,-9.31383 -7.18087,-9.82449 -2.08681,-13.86459 10.43101,-8.27281 36.57174,-18.4441 55.38892,-21.5517 51.30672,-8.47312 105.86062,18.51796 127.87079,63.26532 10.86561,22.09014 12.15721,51.90654 3.27982,75.71428 -9.35518,25.08909 -36.88405,51.47287 -64.83991,62.14286 -11.32235,4.32143 -21.79448,7.85714 -23.2714,7.85714 -1.47693,0 -3.47994,-4.17857 -4.45113,-9.28571 l 0,0 z"
       id="path3041"
       inkscape:connector-curvature="0" />
    <path
       style="fill:#ff6600;stroke:#000000;stroke-width:2.85714293"
       d="m 229.54771,801.60854 c -16.9798,-17.72111 -24.92377,-35.79753 -26.42808,-60.13686 -4.47236,-72.36163 75.11552,-121.83932 138.10815,-85.8582 20.01579,11.43293 20.56523,13.58669 7.30826,28.64741 -13.66801,15.52767 -22.94245,38.32109 -23.6427,58.10569 -0.44554,12.58821 -1.29595,14.32429 -7.8186,15.96137 -24.02748,6.03051 -53.29121,27.41352 -65.47744,47.84436 -2.57757,4.32143 -5.91538,7.85714 -7.41737,7.85714 -1.50199,0 -8.08648,-5.58941 -14.63222,-12.42091 z"
       id="path3043"
       inkscape:connector-curvature="0" />
    <text
       xml:space="preserve"
       style="font-size:40px;font-style:normal;font-weight:normal;line-height:125%;letter-spacing:0px;word-spacing:0px;fill:#000000;fill-opacity:1;stroke:none;font-family:Sans"
       x="214.28571"
       y="738.07648"
       id="text3045"
       sodipodi:linespacing="125%"><tspan
         sodipodi:role="line"
         id="tspan3047"
         x="214.28571"
         y="738.07648">dotco</tspan></text>
    <text
       xml:space="preserve"
       style="font-size:40px;font-style:normal;font-weight:normal;line-height:125%;letter-spacing:0px;word-spacing:0px;fill:#000000;fill-opacity:1;stroke:none;font-family:Sans"
       x="417.14285"
       y="706.64789"
       id="text3049"
       sodipodi:linespacing="125%"><tspan
         sodipodi:role="line"
         id="tspan3051"
         x="417.14285"
         y="706.64789">ricfu</tspan></text>
    <text
       xml:space="preserve"
       style="font-size:40px;font-style:normal;font-weight:normal;line-height:125%;letter-spacing:0px;word-spacing:0px;fill:#000000;fill-opacity:1;stroke:none;font-family:Sans"
       x="271.42856"
       y="895.21936"
       id="text3053"
       sodipodi:linespacing="125%"><tspan
         sodipodi:role="line"
         id="tspan3055"
         x="271.42856"
         y="895.21936">nanmu</tspan></text>
    <text
       xml:space="preserve"
       style="font-size:40px;font-style:normal;font-weight:normal;line-height:125%;letter-spacing:0px;word-spacing:0px;fill:#000000;fill-opacity:1;stroke:none;font-family:Sans"
       x="137.14285"
       y="1009.5051"
       id="text3057"
       sodipodi:linespacing="125%"><tspan
         sodipodi:role="line"
         id="tspan3059"
         x="137.14285"
         y="1009.5051">dotco jo ricfu jo nanmu</tspan></text>
  </g>
</svg>
