<?xml version="1.0" encoding="UTF-8" standalone="no"?>
<!-- Created with Inkscape (http://www.inkscape.org/) -->

<svg
   xmlns:dc="http://purl.org/dc/elements/1.1/"
   xmlns:cc="http://creativecommons.org/ns#"
   xmlns:rdf="http://www.w3.org/1999/02/22-rdf-syntax-ns#"
   xmlns:svg="http://www.w3.org/2000/svg"
   xmlns="http://www.w3.org/2000/svg"
   xmlns:sodipodi="http://sodipodi.sourceforge.net/DTD/sodipodi-0.dtd"
   xmlns:inkscape="http://www.inkscape.org/namespaces/inkscape"
   width="744.44116"
   height="1050.1583"
   id="svg2"
   version="1.1"
   inkscape:version="0.48.1 r9760"
   sodipodi:docname="jo3.svg">
  <defs
     id="defs4" />
  <sodipodi:namedview
     id="base"
     pagecolor="#ffffff"
     bordercolor="#666666"
     borderopacity="1.0"
     inkscape:pageopacity="0.0"
     inkscape:pageshadow="2"
     inkscape:zoom="1.0074671"
     inkscape:cx="446.56731"
     inkscape:cy="1532.0101"
     inkscape:document-units="px"
     inkscape:current-layer="layer1"
     showgrid="false"
     inkscape:window-width="1016"
     inkscape:window-height="694"
     inkscape:window-x="0"
     inkscape:window-y="43"
     inkscape:window-maximized="0"
     inkscape:snap-nodes="true"
     fit-margin-top="0"
     fit-margin-left="0"
     fit-margin-right="0"
     fit-margin-bottom="0" />
  <metadata
     id="metadata7">
    <rdf:RDF>
      <cc:Work
         rdf:about="">
        <dc:format>image/svg+xml</dc:format>
        <dc:type
           rdf:resource="http://purl.org/dc/dcmitype/StillImage" />
        <dc:title />
      </cc:Work>
    </rdf:RDF>
  </metadata>
  <g
     inkscape:label="Layer 1"
     inkscape:groupmode="layer"
     id="layer1"
     transform="translate(-0.99258822,-2.2037985)">
    <rect
       style="fill:#ffffff;stroke:none"
       id="rect3022"
       width="744.44116"
       height="1050.1583"
       x="0.99258822"
       y="2.2037985" />
    <path
       sodipodi:type="arc"
       style="fill:none;stroke:#000000"
       id="path2993"
       sodipodi:cx="274.28571"
       sodipodi:cy="272.36218"
       sodipodi:rx="131.42857"
       sodipodi:ry="125.71429"
       d="m 405.71428,272.36218 c 0,69.43009 -58.84258,125.71429 -131.42857,125.71429 -72.586,0 -131.42858,-56.2842 -131.42858,-125.71429 0,-69.43008 58.84258,-125.71428 131.42858,-125.71428 72.58599,0 131.42857,56.2842 131.42857,125.71428 z"
       transform="translate(-6.0609153,-63.63961)" />
    <path
       sodipodi:type="arc"
       style="fill:none;stroke:#000000"
       id="path2995"
       sodipodi:cx="452.85715"
       sodipodi:cy="273.79074"
       sodipodi:rx="144.28572"
       sodipodi:ry="132.85715"
       d="m 597.14287,273.79074 c 0,73.37498 -64.59892,132.85715 -144.28572,132.85715 -79.68681,0 -144.28572,-59.48217 -144.28572,-132.85715 0,-73.37498 64.59891,-132.85715 144.28572,-132.85715 79.6868,0 144.28572,59.48217 144.28572,132.85715 z"
       transform="translate(-6.0609153,-63.63961)" />
    <rect
       style="fill:none;stroke:#000000"
       id="rect2997"
       width="554.28571"
       height="382.85715"
       x="85.367661"
       y="17.293999" />
    <text
       xml:space="preserve"
       style="font-size:40px;font-style:normal;font-weight:normal;line-height:125%;letter-spacing:0px;word-spacing:0px;fill:#000000;fill-opacity:1;stroke:none;font-family:Sans"
       x="191.08192"
       y="145.86543"
       id="text2999"
       sodipodi:linespacing="125%"><tspan
         sodipodi:role="line"
         id="tspan3001"
         x="191.08192"
         y="145.86543">dotco</tspan></text>
    <text
       xml:space="preserve"
       style="font-size:40px;font-style:normal;font-weight:normal;line-height:125%;letter-spacing:0px;word-spacing:0px;fill:#000000;fill-opacity:1;stroke:none;font-family:Sans"
       x="411.08197"
       y="163.0083"
       id="text3003"
       sodipodi:linespacing="125%"><tspan
         sodipodi:role="line"
         id="tspan3005"
         x="411.08197"
         y="163.0083">ricfu</tspan></text>
    <text
       xml:space="preserve"
       style="font-size:40px;font-style:normal;font-weight:normal;line-height:125%;letter-spacing:0px;word-spacing:0px;fill:#000000;fill-opacity:1;stroke:none;font-family:Sans"
       x="210.07181"
       y="434.43683"
       id="text3015"
       sodipodi:linespacing="125%"><tspan
         sodipodi:role="line"
         id="tspan3017"
         x="210.07181"
         y="434.43683">dotco jo ricfu</tspan></text>
    <rect
       style="fill:none;stroke:#000000;stroke-width:1.14050984"
       id="rect3021"
       width="542.85718"
       height="483.14047"
       x="86.868011"
       y="482.30402" />
    <path
       sodipodi:type="arc"
       style="fill:none;stroke:#000000"
       id="path3023"
       sodipodi:cx="295.71429"
       sodipodi:cy="736.64789"
       sodipodi:rx="95.714287"
       sodipodi:ry="95.714287"
       d="m 391.42858,736.64789 c 0,52.86154 -42.85274,95.71428 -95.71429,95.71428 -52.86154,0 -95.71428,-42.85274 -95.71428,-95.71428 0,-52.86154 42.85274,-95.71429 95.71428,-95.71429 52.86155,0 95.71429,42.85275 95.71429,95.71429 z"
       transform="translate(-13.131984,-59.599001)" />
    <path
       sodipodi:type="arc"
       style="fill:none;stroke:#000000"
       id="path3025"
       sodipodi:cx="447.14285"
       sodipodi:cy="749.50507"
       sodipodi:rx="121.42857"
       sodipodi:ry="108.57143"
       d="m 568.57143,749.50507 c 0,59.96234 -54.36543,108.57142 -121.42858,108.57142 -67.06315,0 -121.42857,-48.60908 -121.42857,-108.57142 0,-59.96235 54.36542,-108.57143 121.42857,-108.57143 67.06315,0 121.42858,48.60908 121.42858,108.57143 z"
       transform="translate(-13.131984,-59.599001)" />
    <path
       sodipodi:type="arc"
       style="fill:none;stroke:#000000"
       id="path3027"
       sodipodi:cx="352.85715"
       sodipodi:cy="852.36218"
       sodipodi:rx="112.85714"
       sodipodi:ry="97.14286"
       d="m 465.71429,852.36218 c 0,53.65052 -50.52787,97.14286 -112.85714,97.14286 -62.32928,0 -112.85714,-43.49234 -112.85714,-97.14286 0,-53.65052 50.52786,-97.14286 112.85714,-97.14286 62.32927,0 112.85714,43.49234 112.85714,97.14286 z"
       transform="translate(-13.131984,-59.599001)" />
    <text
       xml:space="preserve"
       style="font-size:40px;font-style:normal;font-weight:normal;line-height:125%;letter-spacing:0px;word-spacing:0px;fill:#000000;fill-opacity:1;stroke:none;font-family:Sans"
       x="291.42856"
       y="912.36218"
       id="text3029"
       sodipodi:linespacing="125%"><tspan
         sodipodi:role="line"
         id="tspan3031"
         x="291.42856"
         y="912.36218" /></text>
    <text
       xml:space="preserve"
       style="font-size:40px;font-style:normal;font-weight:normal;line-height:125%;letter-spacing:0px;word-spacing:0px;fill:#000000;fill-opacity:1;stroke:none;font-family:Sans"
       x="117.94995"
       y="1003.4443"
       id="text3057"
       sodipodi:linespacing="125%"><tspan
         sodipodi:role="line"
         id="tspan3059"
         x="117.94995"
         y="1003.4443">dotco jo ricfu jo nanmu</tspan></text>
    <text
       xml:space="preserve"
       style="font-size:20px;font-style:normal;font-variant:normal;font-weight:normal;font-stretch:normal;text-align:start;line-height:125%;letter-spacing:0px;word-spacing:0px;writing-mode:lr-tb;text-anchor:start;fill:#000000;fill-opacity:1;stroke:none;font-family:Sans;-inkscape-font-specification:Sans"
       x="151.52287"
       y="561.42804"
       id="text3023"
       sodipodi:linespacing="125%"><tspan
         sodipodi:role="line"
         id="tspan3025"
         x="151.52287"
         y="561.42804" /></text>
    <text
       xml:space="preserve"
       style="font-size:24px;font-style:normal;font-variant:normal;font-weight:normal;font-stretch:normal;text-align:start;line-height:125%;letter-spacing:0px;word-spacing:0px;writing-mode:lr-tb;text-anchor:start;fill:#000000;fill-opacity:1;stroke:none;font-family:Sans;-inkscape-font-specification:Sans"
       x="105.05584"
       y="512.94073"
       id="text3027"
       sodipodi:linespacing="125%"><tspan
         sodipodi:role="line"
         id="tspan3029"
         x="105.05584"
         y="512.94073">na'e(dotco jo ricfu) je na'e(nanmu)</tspan></text>
    <text
       xml:space="preserve"
       style="font-size:24px;font-style:normal;font-variant:normal;font-weight:normal;font-stretch:normal;text-align:start;line-height:125%;letter-spacing:0px;word-spacing:0px;writing-mode:lr-tb;text-anchor:start;fill:#000000;fill-opacity:1;stroke:none;font-family:Sans;-inkscape-font-specification:Sans"
       x="290.92392"
       y="934.17432"
       id="text3033"
       sodipodi:linespacing="125%"><tspan
         sodipodi:role="line"
         id="tspan3035"
         x="290.92392"
         y="934.17432">(dotco jo ricfu) je (nanmu)</tspan></text>
    <path
       style="fill:#ffff00;stroke:none"
       d="m 339.67808,297.10513 c -23.71942,-24.92506 -35.66615,-54.00335 -35.70407,-86.90362 -0.0386,-33.47071 12.53586,-63.42761 37.03677,-88.23507 l 9.69925,-9.8206 6.15971,5.35395 c 25.59048,22.24295 41.64832,57.41079 41.64832,91.21284 0,34.05932 -16.07441,69.08771 -41.94888,91.41253 -3.73618,3.22362 -7.16351,5.86112 -7.61629,5.86112 -0.45278,0 -4.62644,-3.99651 -9.27481,-8.88115 l 0,0 z"
       id="path3069"
       inkscape:connector-curvature="0" />
    <path
       style="fill:#ff00ff;stroke:none"
       d="m 226.72308,753.19976 c -17.12305,-12.5885 -30.3752,-32.05462 -35.72215,-52.47237 -2.68479,-10.25207 -3.57918,-27.77313 -1.93749,-37.95547 5.26776,-32.6726 27.29352,-60.57128 57.65895,-73.03307 32.56741,-13.36547 68.6182,-7.87336 96.14487,14.64706 l 6.74483,5.51816 -7.06665,7.19701 c -19.78986,20.15492 -30.01208,44.01711 -30.6631,71.57827 l -0.20778,8.79631 -7.9407,2.31382 c -30.4717,8.87905 -54.05868,27.15282 -67.56328,52.34394 l -3.08086,5.74695 -6.36664,-4.68061 z"
       id="path3077"
       inkscape:connector-curvature="0" />
    <text
       xml:space="preserve"
       style="font-size:40px;font-style:normal;font-weight:normal;line-height:125%;letter-spacing:0px;word-spacing:0px;fill:#000000;fill-opacity:1;stroke:none;font-family:Sans"
       x="194.15288"
       y="676.12341"
       id="text3045"
       sodipodi:linespacing="125%"><tspan
         sodipodi:role="line"
         id="tspan3047"
         x="194.15288"
         y="676.12341">dotco</tspan></text>
    <path
       style="fill:#ff00ff;stroke:none"
       d="m 452.82257,785.84183 c -1.57419,-26.06497 -15.51316,-49.9103 -39.904,-68.26361 -6.67523,-5.02289 -25.52689,-14.62488 -32.0775,-16.33852 -4.08492,-1.06861 -4.2546,-1.25951 -3.63333,-4.0881 1.52725,-6.95357 2.18298,-20.90289 1.3838,-29.43773 -1.84079,-19.6586 -8.30196,-35.62014 -20.79948,-51.38259 l -4.74264,-5.98163 5.61616,-4.20723 c 6.8584,-5.13784 27.26907,-15.29503 35.39381,-17.61342 25.57683,-7.29833 48.95893,-7.93542 72.45847,-1.97427 70.45146,17.87148 107.26811,87.88174 77.24821,146.89458 -5.60652,11.02127 -10.92802,18.24791 -20.58647,27.95669 -14.98008,15.05814 -34.38183,26.09048 -55.5292,31.57533 -14.99379,3.88885 -14.13685,4.30146 -14.82783,-7.1395 l 0,0 z"
       id="path3079"
       inkscape:connector-curvature="0" />
    <path
       style="fill:none;stroke:#000000;stroke-width:1px;stroke-linecap:butt;stroke-linejoin:miter;stroke-opacity:1"
       d="m 283.14131,609.86268 c 42.42024,-73.47402 0,-82.83251 0,-82.83251"
       id="path3057"
       inkscape:connector-curvature="0" />
    <path
       style="fill:none;stroke:#000000;stroke-width:1px;stroke-linecap:butt;stroke-linejoin:miter;stroke-opacity:1"
       d="M 403.34946,614.91344 C 414.7004,572.55115 286.17176,527.03017 286.17176,527.03017"
       id="path3059"
       inkscape:connector-curvature="0" />
    <text
       xml:space="preserve"
       style="font-size:40px;font-style:normal;font-weight:normal;line-height:125%;letter-spacing:0px;word-spacing:0px;fill:#000000;fill-opacity:1;stroke:none;font-family:Sans"
       x="429.95871"
       y="693.11194"
       id="text3049"
       sodipodi:linespacing="125%"><tspan
         sodipodi:role="line"
         id="tspan3051"
         x="429.95871"
         y="693.11194">ricfu</tspan></text>
    <path
       style="fill:#00ffff;stroke:none"
       d="m 332.67528,747.63303 c -8.73012,-12.26763 -15.94029,-29.79857 -17.95116,-43.64679 -0.80562,-5.54806 -1.41767,-5.26279 14.32074,-6.6747 10.71212,-0.961 25.81762,-0.13989 36.65693,1.99262 8.45969,1.66434 8.54466,1.76899 6.50094,8.00682 -4.32039,13.18664 -13.91206,28.14687 -24.37359,38.01575 -10.2564,9.67537 -9.94363,9.62777 -15.15386,2.3063 l 0,0 z"
       id="path3081"
       inkscape:connector-curvature="0" />
    <path
       style="fill:#00ffff;stroke:none"
       d="M 320.60786,887.37495 C 295.1002,883.35478 274.09202,873.16768 256.3469,856.21409 231.26604,832.25198 222.09106,798.8384 232.00117,767.55149 l 2.09923,-6.62743 5.53538,2.76671 c 14.3192,7.15705 30.62666,10.49744 47.22408,9.67328 14.74277,-0.73207 25.52732,-3.55572 38.97325,-10.2041 l 11.18077,-5.52838 7.30633,6.82329 c 17.58991,16.42704 38.05263,26.99182 62.41089,32.22237 8.14123,1.7482 13.57356,2.19465 27.36334,2.24882 l 17.20551,0.0676 -0.65214,5.21955 c -3.49617,27.98238 -24.28908,55.62673 -53.11436,70.61597 -22.57175,11.73739 -51.80478,16.505 -76.92559,12.5458 z"
       id="path3083"
       inkscape:connector-curvature="0" />
    <text
       xml:space="preserve"
       style="font-size:40px;font-style:normal;font-weight:normal;line-height:125%;letter-spacing:0px;word-spacing:0px;fill:#000000;fill-opacity:1;stroke:none;font-family:Sans"
       x="272.38602"
       y="825.60669"
       id="text3053"
       sodipodi:linespacing="125%"><tspan
         sodipodi:role="line"
         id="tspan3055"
         x="272.38602"
         y="825.60669">nanmu</tspan></text>
    <path
       style="fill:none;stroke:#000000;stroke-width:1px;stroke-linecap:butt;stroke-linejoin:miter;stroke-opacity:1"
       d="m 343.39917,714.0489 c -325.269118,0 -55.30716,206.40911 -55.30716,206.40911"
       id="path3063"
       inkscape:connector-curvature="0" />
    <path
       style="fill:none;stroke:#000000;stroke-width:1px;stroke-linecap:butt;stroke-linejoin:miter;stroke-opacity:1"
       d="m 323.19612,841.32812 c -68.70235,18.40874 -35.35534,77.78175 -35.35534,77.78175"
       id="path3067"
       inkscape:connector-curvature="0" />
    <path
       style="fill:#ffff00;stroke:none"
       d="m 85.860728,208.50541 0,-190.576954 276.435842,0 276.43584,0 0,190.576954 0,190.57695 -276.43584,0 -276.435842,0 0,-190.57695 z M 473.29606,341.54137 c 47.79541,-8.17104 87.6358,-37.45067 106.73713,-78.44361 8.43379,-18.09958 11.44512,-31.92019 11.4624,-52.60718 0.014,-16.73446 -1.29815,-25.32311 -6.05523,-39.63498 -6.52781,-19.63915 -14.75368,-33.097 -29.83228,-48.80676 -11.6875,-12.1767 -23.18805,-20.90528 -36.97886,-28.065836 C 468.03825,67.714797 407.68576,71.044421 360.31486,102.71715 l -9.71417,6.495 -6.60509,-4.39106 C 328.29603,94.384042 308.76828,86.925273 288.88114,83.769726 c -12.17276,-1.931487 -37.87777,-1.324965 -49.16923,1.160171 -50.20782,11.050238 -89.08934,48.053343 -100.3608,95.512253 -13.34761,56.20056 14.20163,113.51948 67.47362,140.38552 19.60508,9.8872 37.78465,14.06768 61.17595,14.06768 28.0787,0 51.35987,-6.67018 74.67424,-21.39453 5.52621,-3.49012 6.48861,-3.80082 8.10093,-2.61529 24.07467,17.70195 44.48393,26.58668 71.557,31.15077 12.09447,2.03893 37.59,1.79133 50.96321,-0.49493 l 0,0 z"
       id="path3085"
       inkscape:connector-curvature="0" />
  </g>
</svg>
